<?xml version="1.0" encoding="UTF-8" ?>
<!DOCTYPE svg PUBLIC "-//W3C//DTD SVG 1.1//EN" "http://www.w3.org/Graphics/SVG/1.1/DTD/svg11.dtd">
<svg width="975pt" height="1045pt" viewBox="0 0 975 1045" version="1.1" xmlns="http://www.w3.org/2000/svg">
<g id="#289dd7fd">
<path fill="#289dd7" opacity="1.00" d=" M 479.26 113.34 C 497.39 108.17 518.14 107.96 534.44 118.53 C 548.89 128.32 557.55 144.71 561.57 161.37 C 565.50 177.93 566.16 195.05 566.04 212.01 C 556.76 212.02 547.48 212.00 538.21 212.00 C 539.43 192.93 541.64 171.60 529.94 155.04 C 523.16 144.27 509.57 140.48 497.53 141.42 C 480.12 143.63 463.79 152.11 451.21 164.20 C 442.03 173.31 434.06 185.44 435.95 199.02 C 437.83 211.31 449.30 218.73 459.96 223.08 C 479.12 230.10 499.77 231.52 519.99 232.02 C 559.76 232.35 599.33 227.20 638.47 220.59 C 651.41 215.07 662.45 231.12 657.32 242.30 C 654.48 247.16 649.92 251.48 644.01 251.90 C 615.66 256.59 586.97 259.51 558.23 260.20 C 550.28 295.91 536.82 330.78 515.95 360.99 C 505.58 375.07 493.58 388.58 477.99 396.97 C 467.71 403.00 455.42 405.63 443.58 404.44 C 427.10 402.25 412.80 392.23 401.72 380.27 C 390.55 367.96 381.32 353.91 374.09 338.96 C 371.04 332.50 366.84 325.87 360.04 322.93 C 354.14 319.97 347.56 318.32 340.97 318.14 C 314.43 316.47 288.65 324.14 263.13 330.23 C 213.49 344.06 165.07 361.83 116.30 378.38 C 106.30 381.87 95.49 384.17 87.21 391.21 C 82.61 394.94 79.60 400.28 77.86 405.87 C 74.29 420.47 80.32 434.65 84.61 448.31 C 91.38 468.69 97.65 489.24 104.34 509.65 C 107.48 520.47 110.52 531.99 118.69 540.29 C 126.53 549.73 139.07 553.74 151.03 553.75 C 187.67 554.45 224.32 553.71 260.97 554.03 C 261.14 652.36 260.81 750.69 261.11 849.02 C 260.92 874.59 283.00 898.75 308.96 898.92 C 427.31 899.16 545.68 898.85 664.03 899.07 C 688.67 899.75 711.04 878.83 713.45 854.56 C 714.56 839.73 713.88 824.85 714.00 810.00 C 714.02 724.67 713.96 639.35 714.03 554.03 C 750.67 553.76 787.33 554.36 823.97 553.83 C 835.50 553.96 847.42 550.00 855.35 541.36 C 862.41 534.91 865.74 525.57 868.53 516.69 C 877.39 488.53 886.48 460.44 895.49 432.33 C 898.25 424.91 898.24 416.82 897.92 409.02 C 895.83 396.80 885.84 387.32 874.30 383.63 C 820.91 365.98 768.25 346.03 714.07 330.84 C 694.42 325.65 674.56 320.93 654.33 318.63 C 641.61 317.66 628.06 316.84 616.14 322.19 C 608.87 325.46 599.56 326.54 593.21 320.78 C 586.97 314.23 585.58 302.19 592.70 295.69 C 602.59 285.86 617.30 283.70 630.57 282.48 C 655.44 281.15 680.03 286.22 704.11 291.85 C 763.70 306.32 820.89 328.80 879.08 347.85 C 891.34 351.73 903.53 357.03 912.79 366.22 C 925.15 377.57 932.42 393.77 933.49 410.45 C 935.75 426.55 929.38 441.92 924.80 456.97 C 916.19 483.12 907.99 509.41 899.52 535.61 C 890.02 563.26 865.02 585.74 835.34 588.40 C 806.60 589.88 777.79 588.53 749.03 589.03 C 748.96 675.69 749.00 762.36 749.03 849.02 C 749.99 886.93 721.64 922.93 684.97 931.86 C 673.94 934.98 662.36 934.98 651.00 935.06 C 537.66 934.89 424.32 935.10 310.98 934.96 C 278.61 934.76 247.33 914.51 233.92 885.04 C 227.57 872.79 225.79 858.64 225.95 845.01 C 226.02 759.68 226.02 674.36 225.97 589.03 C 197.70 588.67 169.41 589.55 141.15 588.70 C 111.63 586.19 85.84 564.60 75.99 537.01 C 66.23 507.31 56.99 477.44 47.26 447.73 C 42.36 432.50 38.61 415.81 42.98 399.98 C 45.95 384.92 55.22 371.61 66.97 361.97 C 74.89 355.80 84.19 351.69 93.69 348.62 C 146.12 331.40 197.77 311.71 250.96 296.88 C 279.66 289.12 309.03 282.90 338.85 282.25 C 353.93 282.54 369.56 285.87 381.65 295.37 C 392.58 304.01 399.04 316.71 405.02 328.99 C 411.39 342.13 419.87 354.46 431.19 363.82 C 436.93 368.18 443.56 372.12 451.04 371.92 C 462.84 373.98 472.40 364.65 479.70 356.72 C 501.79 329.77 515.63 297.14 526.07 264.17 C 505.56 262.93 484.94 261.21 464.99 256.02 C 445.76 251.55 426.48 243.87 412.27 229.74 C 405.15 221.51 399.74 211.16 399.93 200.01 C 399.53 185.95 405.13 172.40 413.01 161.00 C 429.00 138.34 452.74 121.38 479.26 113.34 Z" />
</g>
</svg>
